<svg id="b0aa3b29-d525-47b2-8fca-26e84c264c91" data-name="Layer 1" xmlns="http://www.w3.org/2000/svg" width="865.76" height="682.89" viewBox="0 0 865.76 682.89"><g id="a3d4c885-a2e4-49df-8964-7b51553a16fb" data-name="freesvgillustration--background-complete--inject-38"><rect x="22.34" y="576.79" width="821.09" height="0.41" fill="#ebebeb"/><rect x="706.77" y="603.21" width="54.39" height="0.41" fill="#ebebeb"/><rect x="415.87" y="598.2" width="49.63" height="0.41" fill="#ebebeb"/><rect x="590.35" y="587.97" width="114.77" height="0.41" fill="#ebebeb"/><rect x="108.48" y="590.73" width="274.48" height="0.41" fill="#ebebeb"/><rect x="397.57" y="590.73" width="10.4" height="0.41" fill="#ebebeb"/><path d="M411.53,503.55H94.44a9.38,9.38,0,0,1-9.36-9.38V48.43a9.37,9.37,0,0,1,9.36-9.29H411.53a9.37,9.37,0,0,1,9.38,9.37h0V494.17A9.38,9.38,0,0,1,411.53,503.55ZM94.44,39.46a9,9,0,0,0-9,9V494.17a9,9,0,0,0,9,9H411.53a9,9,0,0,0,9-9V48.43a9,9,0,0,0-9-9Z" fill="#ebebeb"/><path d="M766.75,503.55H449.65a9.4,9.4,0,0,1-9.38-9.38V48.43a9.39,9.39,0,0,1,9.38-9.29h317.1a9.37,9.37,0,0,1,9.35,9.29V494.17A9.38,9.38,0,0,1,766.75,503.55ZM449.65,39.46a9,9,0,0,0-9,9V494.17a9,9,0,0,0,9,9h317.1a9,9,0,0,0,9-9V48.43a9,9,0,0,0-9-9Z" fill="#ebebeb"/><polygon points="149.6 347.65 337.63 347.65 334.83 576.79 146.8 576.79 149.6 347.65" fill="#e0e0e0"/><polygon points="158.21 321.59 342.48 321.59 322.41 576.79 138.14 576.79 158.21 321.59" fill="#f0f0f0"/><polygon points="148.7 321.59 332.97 321.59 312.9 576.79 128.62 576.79 148.7 321.59" fill="#f5f5f5"/><polygon points="290.7 561.06 308.29 337.32 170.9 337.32 153.3 561.06 290.7 561.06" fill="#fff"/><rect x="228.92" y="79.21" width="426.87" height="185.91" fill="#e6e6e6"/><rect x="219.58" y="79.21" width="431.85" height="185.91" fill="#f0f0f0"/><rect x="228.92" y="265.12" width="426.87" height="9.64" fill="#e6e6e6"/><rect x="204.04" y="265.12" width="431.85" height="9.64" fill="#f0f0f0"/><rect x="232.65" y="92.26" width="405.72" height="159.8" fill="#fafafa"/><polygon points="274.72 252.06 338.6 92.26 394.69 92.26 330.8 252.06 274.72 252.06" fill="#fff"/><polygon points="465.86 252.06 529.74 92.26 585.82 92.26 521.94 252.06 465.86 252.06" fill="#fff"/><polygon points="342.84 252.06 406.72 92.26 428.6 92.26 364.71 252.06 342.84 252.06" fill="#fff"/><rect x="232.63" y="92.24" width="1.66" height="159.8" fill="#e6e6e6"/><rect x="724.6" y="354.24" width="21.81" height="209.1" fill="#f0f0f0"/><rect x="393.96" y="563.32" width="344.05" height="13.25" fill="#f0f0f0"/><rect x="385.6" y="354.24" width="339" height="209.1" fill="#f5f5f5"/><rect x="402.75" y="379.97" width="304.69" height="68.58" rx="14.12" fill="#f0f0f0"/><rect x="402.75" y="469.01" width="304.69" height="68.58" rx="14.12" fill="#f0f0f0"/><rect x="458.19" y="409.55" width="193.79" height="9.41" rx="4.47" fill="#f5f5f5"/><rect x="458.19" y="498.6" width="193.79" height="9.41" rx="4.47" fill="#f5f5f5"/></g><g id="fb18d632-fcad-4343-99bd-7b30680e1e3a" data-name="freesvgillustration--Shadow--inject-38"><ellipse id="ead8a6e1-bc03-442a-97df-eb620fb158a5" data-name="freesvgillustration--path--inject-38" cx="433.41" cy="632.15" rx="318.4" ry="18.59" fill="#f5f5f5"/></g><path d="M191.09,114c0,23-14.26,46.72-31.81,46.72S127.47,137.08,127.47,114,141.71,77.3,159.28,77.3,191.09,91,191.09,114Z" fill="#FBA1B7"/><path d="M146,251h-1.64c0-7.86,4.12-11.8,8.12-15.61s7.61-7.29,7.61-14.49-3.59-10.72-7.52-14.51-8.11-7.76-8.11-15.62,4.12-11.76,8.11-15.59,7.62-7.29,7.62-14.46h1.65c0,7.85-4.13,11.79-8.12,15.61S146,183.66,146,190.84s3.72,10.74,7.64,14.49,8.11,7.75,8.11,15.61-4.12,11.81-8.11,15.62S146,243.85,146,251Z" fill="#FFDBAA"/><polygon points="159.28 158.39 153.74 169.81 164.79 169.81 159.28 158.39" fill="#FBA1B7"/><path d="M161.13,162.94h-3.72a2.2,2.2,0,0,1-2.19-2.18h0a2.2,2.2,0,0,1,2.19-2.2h3.72a2.18,2.18,0,0,1,2.19,2.18v0h0a2.19,2.19,0,0,1-2.19,2.18Z" fill="#FFDBAA"/><path d="M643.61,68.89c0,23-14.26,46.71-31.81,46.71S580,91.93,580,68.89s14.35-36.73,31.86-36.73S643.61,45.85,643.61,68.89Z" fill="#FBA1B7"/><path d="M598.61,205.9H597c0-7.87,4.12-11.81,8.11-15.62s7.62-7.29,7.62-14.48-3.69-10.74-7.62-14.49S597,153.56,597,145.7s4.12-11.81,8.11-15.62,7.62-7.29,7.62-14.48h1.64c0,7.86-4.12,11.8-8.11,15.61s-7.63,7.29-7.63,14.49,3.71,10.72,7.63,14.48,8.11,7.75,8.11,15.62-4.12,11.81-8.11,15.62S598.61,198.71,598.61,205.9Z" fill="#FFDBAA"/><polygon points="611.85 113.23 606.33 124.66 617.37 124.66 611.85 113.23" fill="#FBA1B7"/><path d="M613.7,117.75H610a2.2,2.2,0,0,1-2.19-2.2h0a2.2,2.2,0,0,1,2.19-2.19h3.72a2.2,2.2,0,0,1,2.2,2.19h0A2.2,2.2,0,0,1,613.7,117.75Z" fill="#FFDBAA"/><path d="M354.22,134c0,15.9-9.85,32.2-21.92,32.2s-21.94-16.3-21.94-32.2,9.85-25.34,21.94-25.34S354.22,118.13,354.22,134Z" fill="#ccc"/><path d="M354.23,134c0,15.9-9.85,32.2-21.92,32.2s-21.94-16.3-21.94-32.2,9.85-25.34,21.94-25.34S354.23,118.13,354.23,134Z" fill="#ccc" opacity="0.7" style="isolation:isolate"/><path d="M343.69,228.5h-1.08c0-4.93-2.56-7.39-5.27-10s-5.6-5.33-5.6-10.77,2.86-8.21,5.6-10.77,5.27-5,5.27-10-2.56-7.39-5.27-10-5.6-5.34-5.6-10.78h1.1c0,4.93,2.55,7.41,5.25,10s5.6,5.33,5.6,10.75-2.84,8.21-5.6,10.77-5.25,5-5.25,10,2.55,7.41,5.25,10S343.69,223.08,343.69,228.5Z" fill="#FFDBAA"/><polygon points="332.3 164.6 328.49 172.48 336.11 172.48 332.3 164.6" fill="#ccc"/><polygon points="332.31 164.6 328.5 172.48 336.12 172.48 332.31 164.6" fill="#ccc" opacity="0.7" style="isolation:isolate"/><path d="M333.58,167.74H331a1.52,1.52,0,0,1-1.51-1.52h0a1.51,1.51,0,0,1,1.51-1.49h2.58a1.51,1.51,0,0,1,1.51,1.49h0A1.52,1.52,0,0,1,333.58,167.74Z" fill="#FFDBAA"/><path d="M230.76,215.7c-2.86-17.34,4.57-10.87,12.53-20.18,14.78-17.19,38.69-19.36,40.43-2.58,1.38,13.29-30.69,21.78-37,21.47,5.34,5.43,25.26,5.89,19.39,30.18s-8.91,28.21-5.83,48.54-65.68,66.61-78.82,14.49c-10.41-41.39,30.66-48.76,14.42-59.58S201.58,214.41,230.76,215.7Z" fill="#FFDBAA"/><path d="M276.87,202.19l-24.71,3.38c-16.82,6.23,10,20.89,15.26,18.84-3.12,5.47-14.65,24.25-9.41,39.92,3.66,11,13.36,9.16,18.16,6.93C288.71,265.41,296.55,219.56,276.87,202.19Z" fill="#FFDBAA"/><path d="M298.75,273.66c2.77,1.92,5.8,4,8.78,5.86s6,3.78,9,5.5,6.12,3.29,9.18,4.68a40.64,40.64,0,0,0,8.8,2.94H333a16.37,16.37,0,0,0,7-2.76,54,54,0,0,0,7.49-5.81c2.45-2.2,4.81-4.6,7.13-7.1s4.56-5.1,6.68-7.65l5.85,3.65a101.83,101.83,0,0,1-5.51,9.49,94.42,94.42,0,0,1-6.56,8.87,58.09,58.09,0,0,1-8.31,8.06,27.31,27.31,0,0,1-12.07,5.68l-.61.12-.94-.1A47.53,47.53,0,0,1,320.79,302,95.43,95.43,0,0,1,310.06,297c-3.4-1.82-6.75-3.69-10-5.73s-6.33-4.09-9.52-6.57Z" fill="#f9b499"/><path d="M287.11,268.32c12.38-.87,16.15,6.72,16.15,6.72l-12.12,23.45s-6.71-5.83-9-13C279.65,278.07,278.7,268.91,287.11,268.32Z" fill="#FBA1B7"/><path d="M360.49,270.88l3.37-11.36,9.3,10.72s-4.18,5.34-9.86,5.44Z" fill="#f9b499"/><polygon points="373.01 251.91 378.43 261.18 373.16 270.24 363.86 259.52 373.01 251.91" fill="#f9b499"/><polygon points="225.85 617.7 239.25 618.98 246.08 587.74 232.68 586.46 225.85 617.7" fill="#f9b499"/><polygon points="104.18 577.25 114.33 586.28 138.5 565.67 128.35 556.64 104.18 577.25" fill="#f9b499"/><path d="M119.63,583.11l-9-12.33a1.09,1.09,0,0,0-1.39-.35L98.4,576.15a2.18,2.18,0,0,0-.8,3,1.37,1.37,0,0,0,.13.2c3.28,4.24,4.92,6.13,8.93,11.5,2.43,3.28,7.31,11.07,10.68,15.68s8.09,1.53,7.11-.69c-4.42-10-4.55-15.78-4.22-20.44A3.53,3.53,0,0,0,119.63,583.11Z" fill="#FBA1B7"/><path d="M240.93,614.92H224.85a1.35,1.35,0,0,0-1.28,1l-3.5,12.75a2,2,0,0,0,1.37,2.48,2,2,0,0,0,.6.08c5.63-.1,8.38-.43,15.47-.43,4.35,0,15.63.45,21.65.45s7.12-6,4.69-6.49c-10.94-2.41-17.22-5.75-20.61-8.93A3.26,3.26,0,0,0,240.93,614.92Z" fill="#FBA1B7"/><path d="M296.68,269.75s6.06,3.28-18.87,80l-54.6-8.38c4.32-22.05,6.45-35.73,2.85-82.93a162.26,162.26,0,0,1,23.64.53,172.14,172.14,0,0,1,24.74,3.81C285,265.41,296.68,269.75,296.68,269.75Z" fill="#FBA1B7"/><path d="M256.49,231.5c.35,8.21-.34,23-6.73,27.51,0,0,3.48,11.66,18.74,25.85,14.12-12.24,6-22,6-22-8.56-3.5-7.31-10-4.81-16Z" fill="#f9b499"/><path d="M257.92,233.16a34.06,34.06,0,0,0,1.22,14.19c1,3.15,4.73,5.09,8.75,6a22.06,22.06,0,0,1,1.81-6.57Z" fill="#f4a48e"/><path d="M244.16,223.31c4,12.87,5.42,18.41,13.66,23.51,12.4,7.66,27.35,0,27.27-13.89,0-12.43-6.57-31.4-20.66-33.47a18.4,18.4,0,0,0-20.27,23.85Z" fill="#f9b499"/><path d="M245.07,201.5c12.13-16,35.63-19.3,38.47-9.77,1.55,5.19.23,10.49-5.19,14.53-9.49,7.08-24.09,7.11-28.59,6.88,3,2.7,2.3,24.64-7.13,15.85s-3.71-21.35-3.71-21.35Z" fill="#FFDBAA"/><path d="M241.91,233.69a9.89,9.89,0,0,0,5.08,5.55c3.13,1.44,5.24-1.24,4.82-4.49-.37-2.92-2.46-7.19-5.83-7.27a4.43,4.43,0,0,0-4.44,4.42A4.59,4.59,0,0,0,241.91,233.69Z" fill="#f9b499"/><path d="M277.81,349.79s6.34,106.41-2.27,146.94c-9,42.17-26.4,102.44-26.4,102.44l-25.47-1.23S236,521.46,239,488.88c4.12-44.93-1.12-145.23-1.12-145.23Z" fill="#FFDBAA"/><path d="M250.09,372.86c-.43-9.85-6.57,3.94-10.46,13.89v.32c.46,14.5.84,31.1.92,47.32C245.79,420.55,250.93,392,250.09,372.86Z" opacity="0.2" style="isolation:isolate"/><path d="M263.41,347.65s-29,85-50.91,133.46c-17.75,39.14-80.65,93.79-80.65,93.79l-14.32-12.12s45.48-62.4,57.74-88.87c39.28-84.94,26.79-110.85,48-132.5Z" fill="#FFDBAA"/><path d="M233.73,273.76c-2.38,3.71-4.77,7-7.32,10.31s-5.21,6.57-8,9.65A131.42,131.42,0,0,1,200,311.18a72.14,72.14,0,0,1-11.2,7.08,33.61,33.61,0,0,1-14,3.51,31.27,31.27,0,0,1-13.92-2.95,32.43,32.43,0,0,1-5.93-3.5c-.92-.67-1.79-1.4-2.64-2.15a24.67,24.67,0,0,1-2.48-2.53l4.81-4.93c.56.36,1.43.89,2.18,1.32s1.64.83,2.4,1.19a32.93,32.93,0,0,0,4.93,1.78,24.06,24.06,0,0,0,9.85.57,24.66,24.66,0,0,0,9-3.36,67.12,67.12,0,0,0,8.9-6.34,105,105,0,0,0,8.34-7.72c2.71-2.71,5.3-5.58,7.82-8.54s4.92-6,7.31-9.08,4.71-6.32,6.78-9.35Z" fill="#f9b499"/><path d="M154.24,312.49l-9.48-2.61,6.67-10s6.43,3.62,7.24,9.21Z" fill="#f9b499"/><polygon points="141.38 307.37 143.78 298.21 151.43 299.87 144.76 309.83 141.38 307.37" fill="#f9b499"/><path d="M154.4,313.92l-10.35,1.14a1.1,1.1,0,0,1-1.21-.91l-4-22a1.12,1.12,0,0,1,.89-1.3h.08l13.43-1.48a1.13,1.13,0,0,1,1.23,1v.08l.91,22.36A1.14,1.14,0,0,1,154.4,313.92Z" fill="#FBA1B7" opacity="0.4" style="isolation:isolate"/><polygon points="142.18 302.28 144.22 313.56 153.89 312.49 153.46 301.67 142.18 302.28" fill="#FBA1B7" opacity="0.7" style="isolation:isolate"/><path d="M159.28,308.75l-1.64-7.09-3.8-4-1.8.31,1.49,3.5h0a7.11,7.11,0,0,0,.74,6.57l.67,1Z" fill="#f9b499"/><path d="M226.13,258.48c-5.71.82-8.62,7-8.62,7l11.94,22s8.34-6.56,7.12-13.92C235.33,265.84,232.65,257.55,226.13,258.48Z" fill="#FBA1B7"/><polygon points="495.25 618.42 507.19 615.13 502.76 586.61 490.82 589.91 495.25 618.42" fill="#f9b499"/><polygon points="393.72 618.73 406.1 618.73 409.17 590.06 396.8 590.06 393.72 618.73" fill="#f9b499"/><path d="M407.13,617.28H392a1.1,1.1,0,0,0-1.06.86l-2.45,11a1.82,1.82,0,0,0,1.41,2.16,1.84,1.84,0,0,0,.41,0c4.93-.08,8.39-.36,14.52-.36,3.76,0,15.11.39,20.3.39s5.88-5.14,3.76-5.61c-9.54-2.09-16.74-4.93-19.71-7.7A3,3,0,0,0,407.13,617.28Z" fill="#FBA1B7"/><path d="M506.73,613.77l-13,3.6a1,1,0,0,0-.79,1.08l.56,11.27a1.82,1.82,0,0,0,1.93,1.7,1.76,1.76,0,0,0,.39-.06c4.66-1.38,11.39-3.53,17.29-5.16,6.91-1.9,13-3.17,21.09-5.4,4.92-1.36,4.92-6.69,2.72-6.57-9.85.53-17.59,2.41-27-.35A5.8,5.8,0,0,0,506.73,613.77Z" fill="#FBA1B7"/><path d="M453.31,230.12c.77.25,1.86.59,2.83.87l3,.89c2,.57,4.07,1.1,6.11,1.64,4.1.95,8.21,1.74,12.27,2.28a74,74,0,0,0,11.9.68A38.2,38.2,0,0,0,495,236a28.62,28.62,0,0,0,4.93-1.21,7.7,7.7,0,0,0,1.12-.45l.55-.21h.28l.28-.16c.27-.23.51-.38.81-.66a36.72,36.72,0,0,0,3.87-4c2.63-3.12,5.27-6.57,7.8-10.19,5.08-7.16,10.09-14.66,15.06-22.07l8.33,4.14a217.35,217.35,0,0,1-11,25.19,121.62,121.62,0,0,1-7.31,12.34,51.23,51.23,0,0,1-4.92,6.27c-.48.52-1.12,1.1-1.64,1.64l-1.06.85-.54.43-.69.46-.7.44-.35.2-.24.13-1,.51a21,21,0,0,1-2,.95,49.83,49.83,0,0,1-15.88,3.88,81.88,81.88,0,0,1-15.18-.15,112.19,112.19,0,0,1-14.45-2.38c-2.35-.56-4.7-1.16-7-1.82-1.17-.33-2.33-.67-3.5-1.05s-2.23-.76-3.61-1.27Z" fill="#f9b499"/><path d="M437.84,246.17c5.52,10.47,40.84,16.68,40.84,16.68l9-29.77s-14-3.58-29-6.57C448.65,224.49,431.85,234.77,437.84,246.17Z" fill="#FBA1B7"/><path d="M459,241.09c4.41,2.93,10.47,13,12.53,20.28a123.08,123.08,0,0,1-24.41-7.88C449.83,248.32,455.41,238.69,459,241.09Z" opacity="0.2" style="isolation:isolate"/><path d="M529.18,197.67l6.8-11.3,8.21,11.75a13.3,13.3,0,0,1-9.31,5.55Z" fill="#f9b499"/><polygon points="542.83 179.63 548.99 190.15 544.25 198.12 535.98 186.38 542.83 179.63" fill="#f9b499"/><path d="M540.76,199.5l10.77,1.19a1.14,1.14,0,0,0,1.26-.95l4.16-23a1.17,1.17,0,0,0-.94-1.35h-.08l-14-1.53a1.14,1.14,0,0,0-1.27,1,.49.49,0,0,0,0,.12l-.94,23.29A1.17,1.17,0,0,0,540.76,199.5Z" fill="#FBA1B7" opacity="0.4" style="isolation:isolate"/><polygon points="553.47 187.38 551.35 199.12 541.27 198.02 541.73 186.75 553.47 187.38" fill="#FBA1B7" opacity="0.7" style="isolation:isolate"/><path d="M389.48,230.71a276.58,276.58,0,0,1,7.87,40.73c1.18,9.61,1.88,18.75,2.31,27.06,1,19.46.61,34.29,1.18,39.32l66.07-4.6c9-70.42-8.21-106.74-8.21-106.74a129.46,129.46,0,0,0-15.82-2c-1.11,0-2.25-.11-3.4-.13a240,240,0,0,0-28.09,2c-1.76.21-3.55.46-5.29.73C397.28,228.56,389.48,230.71,389.48,230.71Z" fill="#FBA1B7"/><path d="M411.4,226.38a240.08,240.08,0,0,1,28.1-1.89c1.15,0,2.3,0,3.42.11h.39c2,4.16,4.93,21.47-4.32,22.73-12.5,1.74-26.95-14-32.84-20.16C407.84,226.84,409.65,226.58,411.4,226.38Z" fill="#fff"/><path d="M406.16,248.53A52.08,52.08,0,0,1,398,277.15q-.27-2.81-.64-5.69c-.87-7.21-2-14.68-3.51-22.22Z" opacity="0.2" style="isolation:isolate"/><path d="M412.06,194.55c2.4,8.92,5.32,25.36-.58,31.83a28.1,28.1,0,0,0,22.26,7.09c7.75-.7,7.76-6.17,5.83-9.06-10.25-1.64-10.51-9.2-9.25-16.33Z" fill="#f9b499"/><path d="M419.43,200.07l10.81,8a28.43,28.43,0,0,0-.51,5c-3.89-.28-9.48-4.14-10.17-8.21A13.76,13.76,0,0,1,419.43,200.07Z" fill="#f4a48e"/><path d="M406.54,184.08c4.21,11.49,6.08,18.52,13.81,22.79,11.61,6.44,24.54-3.29,23.88-15.82-.61-11.31-7.37-28.29-20.28-29.55a16.75,16.75,0,0,0-17.41,22.58Z" fill="#f9b499"/><path d="M410.15,195.41c7.43,1.64,5.47-17.23,1.27-20.92s-14.3-1.52-16.06,2.85S400.09,193.12,410.15,195.41Z" fill="#FFDBAA"/><path d="M399.68,171.28s16.3-4.2,26.27-13.43c-12.4-10.35-33.3-28.9-33.3-28.9S396.49,154.34,399.68,171.28Z" fill="#FBA1B7"/><path d="M397.41,177.34c-6,0-.67-19.13,27.34-20.57S425.75,177.31,397.41,177.34Z" fill="#FFDBAA"/><path d="M410.15,167c1.07-6.48,8.05-14.69,10.15-13.3s1.86,11.1,1.86,11.1Z" fill="#263238"/><path d="M416.56,162.73c2.51-6.06,11.17-12.48,12.91-10.63s-.73,11.23-.73,11.23Z" fill="#FFDBAA"/><path d="M423,160.54c3.92-4.92,12.63-7,14.29-5.22s-1.06,6.57-1.06,6.57Z" fill="#FFDBAA"/><path d="M405.06,198.61a11.66,11.66,0,0,0,8.44,2.87c4.09-.28,4.77-4.27,2.48-7.4-2.07-2.83-6.66-6.08-10.21-4.24a5.26,5.26,0,0,0-.71,8.77Z" fill="#f9b499"/><path d="M508.75,597.27l-20.21,5.55S463.23,523,457,479.21c-1.65-11.61-4.19-27.92-8.08-45.37-4.93-21.94-11.06-45.66-16.1-64.25-5.3-19.56-9.36-33.4-9.36-33.4l43.44-3s23.5,102.49,26,140.2C495.5,512.63,508.75,597.27,508.75,597.27Z" fill="#FFDBAA"/><path d="M508.58,596.31l-20.21,5.55s-25.31-79.78-31.53-123.61c-1.64-11.61-4.19-27.92-8.08-45.37-4.93-21.94-11.05-45.65-16.1-64.24-5.3-19.56-9.36-33.41-9.36-33.41l43.44-3s23.5,102.48,26,140.19C495.33,511.67,508.58,596.31,508.58,596.31Z" fill="#FFDBAA"/><path d="M448.93,433.9c-4.93-21.94-11.06-45.65-16.1-64.24l4.52-9.71C448.19,372.76,451,412.39,448.93,433.9Z" opacity="0.2" style="isolation:isolate"/><path d="M443.47,334.86s-4.68,106-9.85,141.89C427.89,516.06,413.36,602,413.36,602H390.71s-.38-81.47,6.72-119.54c8.06-43.38,3.43-144.64,3.43-144.64Z" fill="#FFDBAA"/><path d="M443.63,333.69s-4.68,106-9.86,141.88c-5.73,39.32-20.26,125.24-20.26,125.24H390.86s-.37-81.47,6.72-119.54c8.06-43.38,3.43-144.64,3.43-144.64Z" fill="#FFDBAA"/><path d="M402.83,248.86l-3.48,4.93c-1.18,1.64-2.33,3.41-3.45,5.15-2.28,3.47-4.47,7-6.57,10.5s-4.07,7.11-5.94,10.69A93.81,93.81,0,0,0,378.57,291l-.11.31v.13a1.69,1.69,0,0,1-.12.28,5.3,5.3,0,0,1-.19.85,23,23,0,0,0-.26,2.3,42.83,42.83,0,0,0,0,5.55c.23,3.91.67,8,1.28,12.14,1.19,8.21,2.74,16.71,4.33,25l-8.82,2.94a182.08,182.08,0,0,1-9.34-25,113.64,113.64,0,0,1-3.1-13.4,63,63,0,0,1-.78-7.39,38.7,38.7,0,0,1,.1-4.17,16,16,0,0,1,.31-2.33l.3-1.31.15-.64.13-.46a125.91,125.91,0,0,1,10.75-25.57c2.17-4,4.49-7.85,6.92-11.65,1.23-1.89,2.49-3.74,3.78-5.6s2.57-3.63,4.08-5.56Z" fill="#f9b499"/><path d="M389.48,230.71c-11.59,2.35-21.76,30.73-21.76,30.73l24.22,19.71s7.93-14.42,14.27-28.35C413.11,237.63,403.54,227.89,389.48,230.71Z" fill="#FBA1B7"/><path d="M382.11,335.21l8.35,9.37-15.12,4.72s-5.34-9.58-.58-13Z" fill="#f9b499"/><polygon points="391.19 354.91 378.51 358.15 375.34 349.21 390.46 344.58 391.19 354.91" fill="#f9b499"/><path d="M537.41,188.61a28.85,28.85,0,0,1,6.48-2.4,35.61,35.61,0,0,1,4-.44s1.08,3.28-4.57,4.32c-1.77,2.28-7.91,5.27-7.91,5.27Z" fill="#f9b499"/><polygon points="659.08 617.14 647.12 617.14 646.61 589.45 658.57 589.45 659.08 617.14" fill="#f9b499"/><polygon points="747.82 595.9 736.24 598.84 724.25 573.34 735.85 570.38 747.82 595.9" fill="#f9b499"/><path d="M734.7,597.63l12.73-4.31a1,1,0,0,1,1.2.45l5.4,9.39a1.82,1.82,0,0,1-.71,2.46,2.52,2.52,0,0,1-.33.14c-4.46,1.42-6.7,1.88-12.28,3.77-3.45,1.17-13.25,5.29-18.06,6.9s-6.85-2.92-5-4c8.22-4.92,13.44-10,15.44-13.48A2.93,2.93,0,0,1,734.7,597.63Z" fill="#FBA1B7"/><path d="M647.24,615.74h13.13a1,1,0,0,1,1,.82l2.1,10.63a1.77,1.77,0,0,1-1.39,2.08,1.64,1.64,0,0,1-.38,0c-4.7,0-11.5-.35-17.41-.35-6.93,0-8.37.38-16.42.38-4.93,0-6.14-4.93-4.09-5.42,9.41-2,12.51-2.27,20.71-7.24A5.66,5.66,0,0,1,647.24,615.74Z" fill="#FBA1B7"/><path d="M649.16,250.42,639.81,236s-37.72,19.7-43.63,18.06c-8-2.3-16.13-1.91-24.4-7.37-2,.34-6.78,2.77-7.79,4.31,7.11,12.24,26.28,21,33.9,20.55C615.33,270.37,649.16,250.42,649.16,250.42Z" fill="#f9b499"/><path d="M657.78,245.84c-3.06,11-33.65,28.06-33.65,28.06l-15-24.78s14.78-14.32,29.36-17.8C654.05,227.51,661.13,233.8,657.78,245.84Z" fill="#FBA1B7"/><path d="M634.82,253.77a26.66,26.66,0,0,0-7.09,18.06c3.43-2.07,8.87-5.45,14.19-9.32C640.45,256.63,636.76,251.86,634.82,253.77Z" opacity="0.2" style="isolation:isolate"/><path d="M573.35,247.83l-8.21-10.37-7.55,12.16s2.17,3,8.21,3.77Z" fill="#f9b499"/><polygon points="557.03 232.09 551.63 242.72 557.67 249.63 565.23 237.46 557.03 232.09" fill="#f9b499"/><path d="M562.38,255.69l-10.77,1.18a1.15,1.15,0,0,1-1.26-.93l-4.16-23a1.18,1.18,0,0,1,.95-1.36h.07l14-1.52a1.12,1.12,0,0,1,1.27,1,.57.57,0,0,1,0,.13l.94,23.28A1.17,1.17,0,0,1,562.38,255.69Z" fill="#FBA1B7" opacity="0.4" style="isolation:isolate"/><polygon points="549.67 243.47 551.79 255.23 561.88 254.13 561.42 242.85 549.67 243.47" fill="#FBA1B7" opacity="0.7" style="isolation:isolate"/><path d="M565.73,244.72a29.16,29.16,0,0,0-6.48-2.4,35.36,35.36,0,0,0-4-.44s-1.08,3.28,4.57,4.32c1.77,2.28,7.91,5.27,7.91,5.27Z" fill="#f9b499"/><path d="M638.53,231.24s-15,33.15-3.28,100.37h63.93c.67-9.85-4.32-54.75,6.29-101a163.08,163.08,0,0,0-21.35-2.7,236.63,236.63,0,0,0-27.16,0A121.31,121.31,0,0,0,638.53,231.24Z" fill="#FBA1B7"/><path d="M691.35,242c-1.25,7.61.7,25.82,7.43,46.86a306.38,306.38,0,0,1,5.74-53.69v-.08C700.31,234.7,692.54,234.9,691.35,242Z" opacity="0.2" style="isolation:isolate"/><path d="M681.25,202.5c-1.93,8.75-3,19.58,2.92,25.42,0,0-3.55,4.85-18.28,4.75-10.94,0-8.88-4.75-8.88-4.75,9.85-2.33,9.59-14.38,8.06-21.18Z" fill="#f9b499"/><path d="M655.6,232c-.86-2.56,2.67-10.21,4.64-10.21,2.76,0,18.77,3,24.22,1.51s2.14,4.58,1.48,6.72S659.08,242.46,655.6,232Z" fill="#FFDBAA"/><path d="M665.05,206.74a26.2,26.2,0,0,1-.41,14.37,16.08,16.08,0,0,0,4.39-1.35c5.57-2.59,8.37-6.67,11.33-12.73.26-1.54.56-3.05.89-4.53Z" fill="#f4a48e"/><path d="M656.15,177.05c-3.61,3.59-6.45,14-3.15,18.64s11.81-12.29,10.89-16.16S656.15,177.05,656.15,177.05Z" fill="#FFDBAA"/><path d="M686.68,190c-2.18,11.78-2.87,18.77-9.52,24.23-10,8.21-23.75,1.28-25.08-10.84-1.2-10.91,2.58-28.33,14.6-31.84a15.8,15.8,0,0,1,20,18.45Z" fill="#f9b499"/><path d="M684.92,200.75c-5.08-1.18-6.3-11.92-2.76-17.8-5.48.44-29.55,1-28.9-10.46.51-9.21,9.8-13,16.69-7s23.53-2.29,25,9.32C702.07,175.64,698.75,204,684.92,200.75Z" fill="#FFDBAA"/><path d="M693.18,175.37s3,.3,2.58-7.06C698.8,170.54,700.1,175.72,693.18,175.37Z" fill="#FFDBAA"/><path d="M690.34,203.55a11.48,11.48,0,0,1-7.55,4.26c-3.91.45-5.17-3.29-3.48-6.57,1.51-3.06,5.35-7,9-5.87S692.63,200.65,690.34,203.55Z" fill="#f9b499"/><path d="M677.3,331.61s-1.26,15-2.87,35.41c-1.85,23.08-4.12,53-5.47,75.88v.31c-.26,4.34-.49,8.41-.67,12.12C666.48,492.58,662.74,601,662.74,601H642.49s-10.2-110.6-10.62-148.52c-.41-36.44,3.41-120.83,3.41-120.83Z" fill="#FFDBAA"/><path d="M674.43,367c-1.85,23.08-4.12,53-5.47,75.88v.31c-4.92-21.64-7-48.57-6.27-92.91Z" opacity="0.2" style="isolation:isolate"/><path d="M658,331.61S669.29,418,675.91,452.2c7.22,37.47,48.53,133,48.53,133l21.21-5.38s-30.23-87-34-124.19c-4.06-40.26-12.45-124-12.45-124Z" fill="#FFDBAA"/><path d="M711.71,248.48l-15.39,8.21s17.52,38,15.24,43.65c-3.1,7.69-5.57,21.86-12.3,29.15,0,2,1.82,6.95,3.29,8.11,13.43-5.25,26.75-30.16,27-37.67C730.07,282.85,711.71,248.48,711.71,248.48Z" fill="#f9b499"/><path d="M705.52,230.62c11.26,1.64,20.48,32.64,20.48,32.64l-21.35,21.61s-10-18.64-14.78-32.48C684.83,237.89,693.43,228.86,705.52,230.62Z" fill="#FBA1B7"/><path d="M701.68,328.39l-11.35-.87L696,340.08s10,.45,11.83-7.17Z" fill="#f9b499"/><polygon points="683.25 330.71 688.97 341.82 695.99 340.08 690.31 327.52 683.25 330.71" fill="#f9b499"/><polygon points="243.36 632.15 234.64 632.15 234.64 442.82 252.09 442.82 243.36 632.15" fill="#d1d3d4"/><polygon points="276.5 632.15 267.78 632.15 267.78 442.82 285.23 442.82 276.5 632.15" fill="#d1d3d4"/><polygon points="623.46 632.15 632.18 632.15 632.18 442.82 614.72 442.82 623.46 632.15" fill="#d1d3d4"/><polygon points="590.32 632.15 599.04 632.15 599.04 442.82 581.58 442.82 590.32 632.15" fill="#d1d3d4"/><path d="M644.2,442.9c0,4.17-94.38,7.57-210.79,7.57S222.62,447,222.62,442.9v-7.59H644.2Z" fill="#bcbec0"/><path d="M644.2,435.23c0,4.19-94.38,7.59-210.79,7.59s-210.79-3.4-210.79-7.59,94.37-7.57,210.79-7.57S644.2,431.06,644.2,435.23Z" fill="#d1d3d4"/><path d="M348,376.93a11.36,11.36,0,1,1-11.38-11.34h0A11.34,11.34,0,0,1,348,376.93Z" fill="#bcbec0"/><circle cx="321.87" cy="376.93" r="8.85" fill="#bcbec0"/><circle cx="351.58" cy="376.93" r="8.85" fill="#bcbec0"/><path d="M351.58,368.08a8.83,8.83,0,0,0-5.77,2.15,11.33,11.33,0,0,0-9.14-4.64h0a11.29,11.29,0,0,0-9.07,4.57,8.85,8.85,0,1,0,0,13.57,11.35,11.35,0,0,0,18.28-.08,8.85,8.85,0,1,0,5.76-15.57Z" opacity="0.2" style="isolation:isolate"/><path d="M297.86,387.44h77.73v43a4.8,4.8,0,0,1-4.8,4.8H302.64a4.8,4.8,0,0,1-4.8-4.8h0v-43Z" fill="#bcbec0"/><rect x="297.86" y="392.45" width="77.72" height="2.56" opacity="0.2" style="isolation:isolate"/><rect x="331.18" y="387" width="11.08" height="48.25" opacity="0.2" style="isolation:isolate"/><path d="M374.4,393.83H299a2.56,2.56,0,0,1-2.56-2.56V386a4.93,4.93,0,0,1,4.93-4.93h70.68A4.93,4.93,0,0,1,377,386v5.32a2.55,2.55,0,0,1-2.56,2.56Z" fill="#bcbec0"/><rect x="330.62" y="381.06" width="12.22" height="12.76" opacity="0.2" style="isolation:isolate"/><rect x="387.64" y="331.66" width="91.54" height="46.23" rx="2.96" fill="#bcbec0"/><path d="M481,333.4v13.84a4.26,4.26,0,0,1-2.92,4.08c-4.11,1.29-5.55,4.15-11.89,4.15-8.21,0-8.21-4.78-16.42-4.78s-8.21,4.78-16.43,4.78-8.21-4.78-16.42-4.78-8.21,4.78-16.42,4.78c-6.32,0-7.77-2.86-11.89-4.15a4.29,4.29,0,0,1-2.91-4.08V333.4a2.68,2.68,0,0,1,2.67-2.68h89.92a2.68,2.68,0,0,1,2.71,2.65Z" fill="#bcbec0"/><path d="M481,333.4v13.84a4.26,4.26,0,0,1-2.92,4.08c-4.11,1.29-5.55,4.15-11.89,4.15-8.21,0-8.21-4.78-16.42-4.78s-8.21,4.78-16.43,4.78-8.21-4.78-16.42-4.78-8.21,4.78-16.42,4.78c-6.32,0-7.77-2.86-11.89-4.15a4.29,4.29,0,0,1-2.91-4.08V333.4a2.68,2.68,0,0,1,2.67-2.68h89.92a2.68,2.68,0,0,1,2.71,2.65Z" fill="#fff" opacity="0.6" style="isolation:isolate"/><rect x="370.54" y="371.74" width="125.73" height="63.5" rx="4.06" fill="#bcbec0"/><rect x="370.54" y="410.06" width="125.73" height="8.39" opacity="0.2" style="isolation:isolate"/><rect x="387.64" y="359.15" width="91.54" height="5.65" opacity="0.2" style="isolation:isolate"/><path d="M498.82,374.13v19a5.83,5.83,0,0,1-4,5.59c-5.65,1.79-7.64,5.71-16.34,5.71-11.28,0-11.28-6.57-22.55-6.57s-11.26,6.57-22.53,6.57-11.26-6.57-22.53-6.57-11.27,6.57-22.53,6.57c-8.7,0-10.69-3.92-16.32-5.71a5.82,5.82,0,0,1-4-5.59v-19a3.66,3.66,0,0,1,3.64-3.68H495.15a3.66,3.66,0,0,1,3.67,3.66Z" fill="#bcbec0"/><path d="M498.82,374.13v19a5.83,5.83,0,0,1-4,5.59c-5.65,1.79-7.64,5.71-16.34,5.71-11.28,0-11.28-6.57-22.55-6.57s-11.26,6.57-22.53,6.57-11.26-6.57-22.53-6.57-11.27,6.57-22.53,6.57c-8.7,0-10.69-3.92-16.32-5.71a5.82,5.82,0,0,1-4-5.59v-19a3.66,3.66,0,0,1,3.64-3.68H495.15a3.66,3.66,0,0,1,3.67,3.66Z" fill="#fff" opacity="0.6" style="isolation:isolate"/><path d="M407.53,313.36h5.22a.68.68,0,0,1,.67.68h0v16.68h-6.57V314A.68.68,0,0,1,407.53,313.36Z" fill="#e6e7e8"/><path d="M410.27,311.67c-1.64.15-4.14-1.28-2.94-5.4,1.1-3.81,2.35-5.14,1.12-7.41C414.08,303.31,414.87,311.3,410.27,311.67Z" fill="#e6e7e8"/><path d="M454.07,313.36h5.22a.68.68,0,0,1,.67.68h0v16.68h-6.57V314A.68.68,0,0,1,454.07,313.36Z" fill="#e6e7e8"/><path d="M456.83,311.67c-1.65.15-4.93-1.64-3-5.4,1.3-2.59,3.55-5.7,2.33-8C461.83,302.82,461.42,311.3,456.83,311.67Z" fill="#e6e7e8"/><path d="M430.8,306.37H436a.67.67,0,0,1,.67.67h0v23.68h-6.57V307a.67.67,0,0,1,.68-.67Z" fill="#e6e7e8"/><path d="M433.28,304.69c1.64.15,4.13-1.28,2.94-5.4-1.1-3.81-2.35-5.14-1.12-7.4C429.47,296.4,428.68,304.32,433.28,304.69Z" fill="#e6e7e8"/><path d="M539.53,369a6.21,6.21,0,1,1-6.21-6.21h0a6.21,6.21,0,0,1,6.2,6.2Z" fill="#bcbec0"/><path d="M530.05,369a4.87,4.87,0,1,1,0-.1Z" fill="#bcbec0"/><path d="M546.27,369a4.84,4.84,0,1,1,0-.16A.43.43,0,0,1,546.27,369Z" fill="#bcbec0"/><path d="M541.35,364.08a4.8,4.8,0,0,0-3.08,1.2,6.17,6.17,0,0,0-4.94-2.49h0a6.17,6.17,0,0,0-4.94,2.49,4.83,4.83,0,1,0-.1,7.33,6.17,6.17,0,0,0,10.06,0,4.78,4.78,0,0,0,3,1.14,4.83,4.83,0,0,0,4.92-4.76.43.43,0,0,0,0-.16A4.83,4.83,0,0,0,541.35,364.08Z" opacity="0.2" style="isolation:isolate"/><path d="M512.12,374.67h42.43v57.95a2.61,2.61,0,0,1-2.61,2.61H514.73a2.61,2.61,0,0,1-2.61-2.61V374.67Z" fill="#bcbec0"/><rect x="512.12" y="377.39" width="42.43" height="1.4" opacity="0.2" style="isolation:isolate"/><rect x="530.31" y="374.42" width="6.04" height="60.81" opacity="0.2" style="isolation:isolate"/><path d="M553.91,378.13h-41a1.4,1.4,0,0,1-1.4-1.39h0v-2.91a2.66,2.66,0,0,1,2.66-2.66h38.53a2.66,2.66,0,0,1,2.66,2.66v2.91a1.4,1.4,0,0,1-1.4,1.39Z" fill="#bcbec0"/><rect x="530" y="371.19" width="6.67" height="6.96" opacity="0.2" style="isolation:isolate"/></svg>