<svg id="eaea3f5e-68f0-46ed-834b-1eb587cd6675" data-name="Layer 1" xmlns="http://www.w3.org/2000/svg" width="865.76" height="682.89" viewBox="0 0 865.76 682.89"><g id="b179f565-8478-4bec-b5a3-a012ea42d023" data-name="freesvgillustration--background-complete--inject-2"><rect x="679.22" y="71.86" width="65.92" height="19.42" fill="#ebebeb"/><path d="M716,47.37c11-.18,38.69-.63,49.31-.73H782.7V67.73h-.87l-33-.13c-8.21,0-24.75-.24-33-.36h-.24v-.38L716,47.44Zm0,0,.4,19.42-.4-.4c8.23-.1,24.75-.28,33-.35l33-.12-.87.87.08-19.42.79.8H765.6c-10.41-.11-38.77-.54-49.58-.72Z" fill="#ebebeb"/><path d="M642.43,47.37c11-.18,38.7-.63,49.31-.73h17.41V67.73h-.87l-33-.13c-8.21,0-24.77-.24-33-.36h-.39v-.38l.38-19.42Zm0,0,.4,19.42-.4-.4c8.23-.1,24.75-.28,33-.35l33-.12-.87.87V47.37l.8.8H692c-10.41-.11-38.77-.54-49.58-.72Z" fill="#ebebeb"/><path d="M83.57,47.37c11-.18,38.68-.63,49.29-.73h17.42V67.73h-.86l-33-.13c-8.21,0-24.75-.24-33-.36h-.4v-.38l.4-19.42Zm0,0,.31,19.42-.38-.4c8.22-.1,24.73-.28,33-.35l33-.12-.87.87V47.37l.8.8H133c-10.41-.11-38.77-.54-49.57-.72Z" fill="#ebebeb"/><rect x="120.34" y="645.75" width="65.92" height="19.42" fill="#ebebeb"/><path d="M83.57,621.26c11-.17,38.68-.63,49.29-.73h17.42v21.09h-.86l-33-.12c-8.21,0-24.75-.25-33-.37h-.4v-.38l.4-19.42Zm0,0,.31,19.42-.38-.4c8.22-.1,24.73-.28,33-.35l33-.12-.87.87V621.26l.8.8L133.14,622c-10.42-.1-38.78-.54-49.57-.71Z" fill="#ebebeb"/><path d="M716,645.73c11-.19,38.69-.62,49.31-.73H782.7v21.09h-.87l-33-.12c-8.21,0-24.75-.25-33-.37h-.24v-.38L716,645.8Zm0,0,.4,19.42-.4-.4c8.23-.1,24.75-.27,33-.34l33-.13-.87.87.08-19.42.79.78H765.6c-10.41-.1-38.77-.54-49.58-.71Z" fill="#ebebeb"/><rect x="227.36" y="229.6" width="65.92" height="19.42" fill="#ebebeb"/><rect x="459.1" y="497.37" width="65.92" height="19.42" fill="#ebebeb"/><path d="M488.27,541.28c-11,.19-38.68.63-49.3.73l-16.65.11h-.8V521h.8l33,.12c8.19,0,24.75.24,33,.36h.4v.39Zm0,0-.4-19.42.4.4c-8.22.1-24.75.28-33,.35l-33,.12.85-.87v19.42l-.78-.78h16.33c10.42.11,38.78.54,49.59.71Z" fill="#ebebeb"/><path d="M128.14,16.8v291H328.6V16.8Zm193,283.6H135.53V24.21H321.24Z" fill="#ebebeb"/><rect x="135.53" y="24.21" width="185.62" height="276.2" fill="#fff"/><rect x="135.53" y="167.28" width="185.62" height="7.39" fill="#ebebeb"/><rect x="114.53" y="307.79" width="227.64" height="21.23" fill="#dbdbdb"/><path d="M135.53,24.2H321.24V214.09H135.53ZM314.3,31.05H142.37V207.27H314.31Z" fill="#dbdbdb"/><rect x="258.22" y="24.2" width="3.7" height="183.07" fill="#dbdbdb"/><rect x="194.77" y="24.2" width="3.7" height="183.07" fill="#dbdbdb"/><path d="M536.87,16.8v291H737.35V16.8Zm193,283.6H544.32V24.21H730Z" fill="#ebebeb"/><rect x="544.32" y="24.21" width="185.62" height="276.2" fill="#fff"/><rect x="544.32" y="167.28" width="185.62" height="7.39" fill="#ebebeb"/><rect x="523.32" y="307.79" width="227.64" height="21.23" fill="#dbdbdb"/><path d="M544.32,24.2H730V214.09H544.32Zm178.76,6.85H551.15V207.27h172Z" fill="#dbdbdb"/><rect x="667" y="24.2" width="3.7" height="183.07" fill="#dbdbdb"/><rect x="603.55" y="24.2" width="3.7" height="183.07" fill="#dbdbdb"/></g><g id="a446eace-9422-4745-be39-02d83aeb2b03" data-name="freesvgillustration--Plant--inject-2"><path d="M575.16,534.83a379.84,379.84,0,0,1,.62-40.35,512.33,512.33,0,0,1,12.65-82.25c3.52-15.23,7.87-30.18,12.39-45.14.14-.44.86-.31.72.16-14,52.68-25.47,107.06-24.68,161.83.22,15.33,2,30.39,3.44,45.61,0,.42-.64.57-.73.16A228.88,228.88,0,0,1,575.16,534.83Z" fill="#FBA1B7"/><path d="M601.56,367.25s21.21,53.8,16.47,66.45-14.55,15.35-14.55,15.35,13,18.51,3.91,35.87-29.22,16.55-30.53,36.25C576.77,521.17,575.66,438.82,601.56,367.25Z" fill="#FBA1B7"/><path d="M579.08,487.17a.37.37,0,0,1,0-.29A492.82,492.82,0,0,1,599.7,378.59c0-.1.21,0,.17,0q-6.33,23.69-11.17,47.56a23.37,23.37,0,0,1,10.13-5.64s.1.09,0,.11a26.84,26.84,0,0,0-10.45,7c-.62,3.12-1.23,6.24-1.72,9.36,4.74-5.29,11.31-7.92,17.87-10.41m0,.13c-6.87,2.81-13.75,6.38-18.29,12.29q-2.44,13.38-4.26,26.87a25.62,25.62,0,0,1,12.7-7.24c.16,0,.24.19.09.23A26.58,26.58,0,0,0,582,467h0c-.43,3.17-.83,6.33-1.21,9.51a32.55,32.55,0,0,1,8.79-5.3c.08,0,.13.11,0,.14a30.42,30.42,0,0,0-8.87,5.86h-.12c-.35,3-.71,6-1,9a43.17,43.17,0,0,1,18-12.82c.14,0,.23.16.09.21a46.85,46.85,0,0,0-17.72,13.63.37.37,0,0,1-.45.14q-.69,7-1.2,13.92c-.52,7-.12,0-.11,0,.24-4.69.57-9.46,1-14.2Z" fill="#FFDBAA"/><path d="M596.11,415.17a26.42,26.42,0,0,1,12.74-4,.08.08,0,1,1,0,.15,50.78,50.78,0,0,0-12.59,4.13.17.17,0,0,1-.23-.08A.17.17,0,0,1,596.11,415.17Z" fill="#FFDBAA"/><path d="M593.53,472.13a26.41,26.41,0,0,1,9.56-3.26.07.07,0,0,1,.08.08.08.08,0,0,1-.08.09,36.19,36.19,0,0,0-9.46,3.31C593.51,472.42,593.41,472.2,593.53,472.13Z" fill="#FFDBAA"/><path d="M529.37,439.3a144.69,144.69,0,0,1,22.94,23.14,88.33,88.33,0,0,1,15,30.37A218,218,0,0,1,575,563.28a169.62,169.62,0,0,1-6.63,38.86.38.38,0,0,1-.5.2.37.37,0,0,1-.22-.38,220.56,220.56,0,0,0,4.69-68.35c-2.06-22.46-6-47-18.77-66-7-10.31-16-18.82-24.87-27.5A.52.52,0,0,1,529.37,439.3Z" fill="#FBA1B7"/><path d="M573.06,547.18a130.91,130.91,0,0,0-16.16-24.07c-9.79-11.36-18.15-19.52-19-26.61s11.48-11.37,11.48-11.37-14.85,1.53-18.28-4.92-2.89-42.15-2.89-42.15,25.23,20.94,35.54,48.53S573.06,547.18,573.06,547.18Z" fill="#FBA1B7"/><path d="M536.66,447.86C547,459.69,557.47,472.23,563,487.17a151.27,151.27,0,0,1,4.76,15.76h0c.25,1.07.53,2.15.77,3.23a.28.28,0,0,1,0,.18,304.27,304.27,0,0,1,5.16,33.43s-.11.08-.11,0c-.74-5.64-1.6-11.33-2.61-17h-.15a23.53,23.53,0,0,0-6.88-2.29c-.15,0-.12-.29,0-.27a25.54,25.54,0,0,1,6.88,1.72c-.92-5.16-2-10.31-3.17-15.33A73.81,73.81,0,0,0,552,503.35m0-.09a60.56,60.56,0,0,1,15.47,2.46c-.22-.86-.45-1.72-.65-2.6a81.29,81.29,0,0,0-10.31-2.56v-.1a51.31,51.31,0,0,1,10.19,2c-1.14-4.38-2.39-8.73-3.84-13a77.55,77.55,0,0,0-4.29-10.12,64.54,64.54,0,0,0-8.42-2.15v-.14a22.9,22.9,0,0,1,7.9,1.38,77.25,77.25,0,0,0-4-6.88h0c-5.88-1.72-11.84-3.43-18-2.73a.11.11,0,0,1-.06-.14s0,0,.06-.05c5.93-1.1,11.62.21,17.32,1.72-.56-.89-1.15-1.72-1.71-2.65a40.31,40.31,0,0,0-11-2.56s-.09-.12,0-.12A29,29,0,0,1,551,466.75c-4.48-6.5-9.5-12.65-14.49-18.75-.24-.28-.07-.43.18-.14Z" fill="#FFDBAA"/><path d="M535.18,472.13a23.6,23.6,0,0,1,5.31.21c.2,0,.17.38,0,.38-1.72-.09-3.44-.35-5.26-.38a.11.11,0,0,1-.13-.08A.11.11,0,0,1,535.18,472.13Z" fill="#FFDBAA"/><path d="M551.82,508a23.94,23.94,0,0,1,8.07,2.25v.12c-2.66-.84-5.38-1.31-8.07-2a.21.21,0,0,1-.21-.21A.2.2,0,0,1,551.82,508Z" fill="#FFDBAA"/><path d="M558.43,496.54a18.05,18.05,0,0,1,3.44.58c.12,0,0,.21,0,.21a18.09,18.09,0,0,1-3.44-.43.19.19,0,0,1-.12-.24A.18.18,0,0,1,558.43,496.54Z" fill="#FFDBAA"/><path d="M641.26,465.43a122,122,0,0,0-23.37,14.33,74.17,74.17,0,0,0-18.39,21.8A183.74,183.74,0,0,0,579,557.66a142.47,142.47,0,0,0-2.38,33.11.31.31,0,0,0,.61,0,186,186,0,0,1,10-56.88c6.17-17.95,14.32-37.25,28.62-50.26,7.77-7.08,16.84-12.15,25.78-17.46A.42.42,0,1,0,641.26,465.43Z" fill="#FBA1B7"/><path d="M583.87,544.8a111.49,111.49,0,0,1,18.07-16.45c10.31-7.3,18.77-12.3,20.9-17.92s-7.1-11.61-7.1-11.61,11.81,4.27,16-.27,10.83-33.88,10.83-33.88-24.84,12-38.91,32.47S583.87,544.8,583.87,544.8Z" fill="#FBA1B7"/><path d="M584.58,538.82c10.31-25.69,25.07-49.55,47.13-66.65h0a117.18,117.18,0,0,0-15.8,15.46,27.57,27.57,0,0,1,14.22,1.4c.1,0,0,.17,0,.15a38.3,38.3,0,0,0-14.58-.84h-.15c-.76.88-1.5,1.72-2.24,2.7a44.27,44.27,0,0,1,7.55.15v.11a38.73,38.73,0,0,0-7.91.22,165.08,165.08,0,0,0-10.67,15.19,12.59,12.59,0,0,1,5.15-.2.1.1,0,0,1,0,.2,28.76,28.76,0,0,0-5.55.54c-.62,1-1.22,2-1.82,2.94a50.83,50.83,0,0,1,15.86-.21m0,.14a63,63,0,0,0-16.22.72c-.57.94-1.09,1.92-1.64,2.87a34.06,34.06,0,0,1,9.46,0,.11.11,0,0,1,0,.14l0,0a35.39,35.39,0,0,0-9.75.31c-2.37,4.14-4.59,8.35-6.72,12.6a8.75,8.75,0,0,1,4.13-.21v.12a18.35,18.35,0,0,0-4.42.69q-2.86,5.77-5.47,11.58c-.17.35-.77.18-.56-.17Z" fill="#FFDBAA"/><path d="M602.47,516.48a19.88,19.88,0,0,1,7.61.08m0,.12a59.28,59.28,0,0,0-7.54,0,.14.14,0,0,1-.09-.17l0,0Z" fill="#FFDBAA"/><path d="M621.76,484.4a13.59,13.59,0,0,1,3.43-.19.14.14,0,0,1,.07.16.12.12,0,0,1-.07.07c-1.15,0-2.27.17-3.43.26a.15.15,0,0,1-.1-.2A.17.17,0,0,1,621.76,484.4Z" fill="#FFDBAA"/><polygon points="549.82 646.15 608.54 646.15 600.17 576.36 598.02 558.47 560.34 558.47 558.19 576.36 549.82 646.15" fill="#FFDBAA"/><polygon points="558.19 576.36 600.17 576.36 598.02 558.47 560.34 558.47 558.19 576.36" fill="#231f20" opacity="0.3"/><rect x="554.94" y="552.26" width="48.47" height="15.16" fill="#FFDBAA"/></g><g id="a2ac6d3e-95ed-460c-b1f3-2bde370e3949" data-name="freesvgillustration--Table--inject-157"><rect x="203.48" y="429.14" width="147.88" height="18.96" fill="#FFDBAA"/><polygon points="277.42 445.71 277.42 644.47 288.8 644.47 291.42 445.71 277.42 445.71" fill="#FFDBAA"/><polygon points="240.67 445.71 201.29 644.47 212.23 644.47 256.42 445.71 240.67 445.71" fill="#FFDBAA"/><polygon points="320.21 444.92 361.01 644.42 350.08 644.42 304.46 444.92 320.21 444.92" fill="#FFDBAA"/><path d="M351.36,448.32c0,.25-32.79.43-73.22.43s-73.24-.18-73.24-.43,32.78-.44,73.24-.44S351.36,448.08,351.36,448.32Z" fill="#FFDBAA"/><path d="M351.36,448.32c0,.25-32.79.43-73.22.43s-73.24-.18-73.24-.43,32.78-.44,73.24-.44S351.36,448.08,351.36,448.32Z" fill="#231f20" opacity="0.2"/></g><rect x="255.07" y="353.39" width="54.41" height="92.22" transform="translate(-131.22 660.84) rotate(-87.05)" fill="#FBA1B7"/><rect x="239.57" y="390.78" width="54.41" height="15.81" transform="translate(-145.11 644.59) rotate(-87.05)" fill="#fff" opacity="0.7" style="isolation:isolate"/><rect x="285.62" y="385.55" width="54.41" height="31.05" transform="translate(-103.82 692.84) rotate(-87.05)" opacity="0.2" style="isolation:isolate"/><rect x="267.2" y="341.86" width="1.94" height="61.17" transform="translate(-117.58 621.1) rotate(-87.05)" opacity="0.2" style="isolation:isolate"/><rect x="280.98" y="315.8" width="8.29" height="97.32" transform="translate(-105.67 612.25) rotate(-84.34)" fill="#FBA1B7"/><rect x="263" y="354.78" width="8.29" height="15.81" transform="translate(-120.12 592.76) rotate(-84.34)" fill="#fff" opacity="0.7" style="isolation:isolate"/><rect x="311.15" y="349.11" width="8.29" height="36.67" transform="translate(-81.46 644.96) rotate(-84.34)" opacity="0.2" style="isolation:isolate"/><path d="M301.91,353.16a8.71,8.71,0,0,0-7.79-9.54h0l12.69,1.25a8.73,8.73,0,0,1-1.72,17.38l-8.69-.86-4-.41A8.71,8.71,0,0,0,301.91,353.16Z" fill="#FBA1B7"/><path d="M301.91,353.16a8.71,8.71,0,0,0-7.79-9.54h0l12.69,1.25a8.73,8.73,0,0,1-1.72,17.38l-8.69-.86-4-.41A8.71,8.71,0,0,0,301.91,353.16Z" fill="#fff" opacity="0.5" style="isolation:isolate"/><path d="M294.09,343.62l12.69,1.25a8.74,8.74,0,0,0-9.55,7.83h0l-.85,8.69-12.7-1.32.86-8.69A8.71,8.71,0,0,1,294.09,343.62Z" fill="#FBA1B7"/><path d="M294.09,343.62l12.69,1.25a8.74,8.74,0,0,0-9.55,7.83h0l-.85,8.69-12.7-1.32.86-8.69A8.71,8.71,0,0,1,294.09,343.62Z" fill="#fff" opacity="0.7" style="isolation:isolate"/><path d="M280.3,342.24l-12.69-1.32a8.74,8.74,0,0,1,7.83,9.55l-.85,8.69,12.69,1.32.85-8.69a8.72,8.72,0,0,0-7.82-9.55Z" fill="#FBA1B7"/><path d="M280.3,342.24l-12.69-1.32a8.74,8.74,0,0,1,7.83,9.55l-.85,8.69,12.69,1.32.85-8.69a8.72,8.72,0,0,0-7.82-9.55Z" fill="#fff" opacity="0.5" style="isolation:isolate"/><path d="M270.76,350.07a8.74,8.74,0,0,1,9.54-7.83l-12.69-1.32a8.73,8.73,0,1,0-1.71,17.38l8.69.86,4,.4A8.74,8.74,0,0,1,270.76,350.07Z" fill="#FBA1B7"/><path d="M270.76,350.07a8.74,8.74,0,0,1,9.54-7.83l-12.69-1.32a8.73,8.73,0,1,0-1.71,17.38l8.69.86,4,.4A8.74,8.74,0,0,1,270.76,350.07Z" fill="#fff" opacity="0.7" style="isolation:isolate"/><path d="M315.09,332.77,310,331c-1.7-5,5.83-6.83,4.14-11.88l5.13,1.78C320.93,326,313.4,327.76,315.09,332.77Z" fill="#FBA1B7"/><path d="M230.62,346.77,227.2,350c-4.53-.7-2.92-7.2-7.46-7.93l3.41-3.22C227.69,339.58,226.08,346.07,230.62,346.77Z" fill="#FBA1B7"/><path d="M230.62,346.77,227.2,350c-4.53-.7-2.92-7.2-7.46-7.93l3.41-3.22C227.69,339.58,226.08,346.07,230.62,346.77Z" fill="#fff" opacity="0.7" style="isolation:isolate"/><path d="M346.59,364.68,343.77,361c1.22-4.43,7.49-2.09,8.71-6.51l2.81,3.75C354.06,362.59,347.8,360.26,346.59,364.68Z" fill="#FBA1B7"/><path d="M346.59,364.68,343.77,361c1.22-4.43,7.49-2.09,8.71-6.51l2.81,3.75C354.06,362.59,347.8,360.26,346.59,364.68Z" fill="#fff" opacity="0.5" style="isolation:isolate"/><path d="M264.13,323.53l-3.19.78c-2.51-2,.72-5.38-1.78-7.37l3.18-.77C264.84,318.17,261.62,321.55,264.13,323.53Z" fill="#FBA1B7"/><path d="M222.2,387.75l1,3.12c-1.8,2.64-5.42-.3-7.21,2.34l-1-3.12C216.78,387.41,220.43,390.41,222.2,387.75Z" fill="#FBA1B7"/><path d="M375.43,164.43s.69-.57,3.6-1l-.21,5S374,167.08,375.43,164.43Z" fill="#FBA1B7"/><path d="M375.43,164.43s.69-.57,3.6-1l-.21,5S374,167.08,375.43,164.43Z" fill="#231f20" opacity="0.3"/><path d="M401.62,127.91a78.62,78.62,0,0,1,7,21.21l3.51,1.14L437.82,126l-5.65-2.83a31.43,31.43,0,0,1-6.64-4.44l-9.21-8Z" fill="#f9b499"/><path d="M401.62,127.91s2,5,4.36,10.62c0,0,2.67-.62,6.56-4.21L414,120Z" fill="#f7a48b"/><ellipse cx="407.94" cy="97.41" rx="35.23" ry="21.35" transform="translate(169.94 442.74) rotate(-68.86)" fill="#f9b499"/><path d="M429,96l8,2s10-11.43,4-15.71c0,0,1.71-5.15-4.29-4.58,0,0,6.57-11.71-8-9.42,0,0,1.72-5.43-6.57-2.86,0,0,6.29-10.29-6.57-6.57,0,0-.42-8.34-9.44-.62a35.75,35.75,0,0,0-7.62,9.29l-2.08,3.61s-2.85-4.48,7.72-15a1.33,1.33,0,0,0-1.81-1.94c-3.08,2.75-11.69,12-11.34,29,0,0,5.18-9.37,9.12-5.65a1.65,1.65,0,0,0,2.06.18c1.9-1.31,5.6-3.26,7.5-.3a1.81,1.81,0,0,0,1.48.88c2.12,0,6.83.61,7.27,5.46A21.8,21.8,0,0,0,429,96" fill="#FFDBAA"/><path d="M518.35,283.26s-2,1.16-5.81,3.11c-8.45,4.26-26,12.26-52.11,19.9,0,0-6.48,3.75-14.94-4.49a13.82,13.82,0,0,0-4.24-2.79s0,.12,0,.32c0,1.66-.6,9.14-11.52,8.12l-21.37-5.21-5.72-1.39a3.61,3.61,0,0,1-2.76-3.58c.23-10.85.55-49.44-6-65.83,0,0-9.79,3.89-16.69-3.78a5.58,5.58,0,0,0-2.53-2.64,17,17,0,0,1-8-8.62c-2.38-6-3.33-15.66,3.66-29,0,0,1.92-2.3,2.69-10.74,0,0-1-9,2.46-12.19a.2.2,0,0,1,.32.2c-.45,1.61,0,5.47,15.63,3.94,0,0,12.66,1.15,8.82-5.38v-5.75l1.27-.16a2.94,2.94,0,0,0,2.36-1.75,16.8,16.8,0,0,1,1.71-3.08,16.54,16.54,0,0,1,3.11-3.33l3.51,1.14L437.83,126l7.64,1.89s25.31-23,39.12-5c0,0,5,6.52,6.91,48.71,0,0-.39,45.27,26.08,94.75C517.58,266.38,524.1,281.72,518.35,283.26Z" fill="#FBA1B7"/><path d="M425.7,185.82a30,30,0,0,1,3-5.91,33.12,33.12,0,0,1,4.09-5.22,25.43,25.43,0,0,1,5.25-4.1,18.27,18.27,0,0,1,6.24-2.17,23.61,23.61,0,0,0-3,1.24,21,21,0,0,0-2.82,1.58,33.73,33.73,0,0,0-4.94,4.15,49.72,49.72,0,0,0-4.17,5c-.65.86-1.27,1.76-1.85,2.68S426.26,184.87,425.7,185.82Z" fill="#231f20" opacity="0.3"/><path d="M445.46,127.91a30.09,30.09,0,0,1-1.15,5.77,40.37,40.37,0,0,1-2.06,5.53c-.4.9-.86,1.77-1.31,2.65s-1,1.72-1.53,2.53a30.18,30.18,0,0,1-3.68,4.6c1-1.67,2.09-3.3,3-5s1.82-3.42,2.6-5.18,1.55-3.55,2.23-5.37S444.9,129.78,445.46,127.91Z" fill="#231f20" opacity="0.3"/><path d="M454.38,127.2a29.22,29.22,0,0,0-1.91,4.14,40.76,40.76,0,0,0-1.41,4.3,51.69,51.69,0,0,0-1.57,8.9l-.15,2.25c0,.75,0,1.51-.06,2.26,0,1.5,0,3.06-.08,4.58a37.3,37.3,0,0,1-.51,4.58,14.83,14.83,0,0,1-.63,2.23,3.27,3.27,0,0,1-1.33,1.84,2.06,2.06,0,0,0,.69-.88,4.72,4.72,0,0,0,.39-1.05,13.75,13.75,0,0,0,.39-2.22,37.8,37.8,0,0,0,.23-4.52c0-1.52-.06-3-.09-4.55s.05-3.08.16-4.61a40.32,40.32,0,0,1,1.83-9A28.77,28.77,0,0,1,454.38,127.2Z" fill="#231f20" opacity="0.3"/><path d="M452.45,167.49a18.35,18.35,0,0,1,3.56-.32,27,27,0,0,1,3.58.31,24.51,24.51,0,0,1,6.87,2.15,24.93,24.93,0,0,1,6,4A28.87,28.87,0,0,1,475,176.2c.77.92,1.46,1.9,2.14,2.86a45.81,45.81,0,0,0-5.15-4.82l-1.4-1.06-1.46-1a40.14,40.14,0,0,0-3.05-1.69,31,31,0,0,0-6.59-2.3A29.13,29.13,0,0,0,452.45,167.49Z" fill="#231f20" opacity="0.3"/><path d="M432.72,206.05s9.3,15.51,27.44,10.5c0,0,14.85-1.72,16.54-8.85a14.6,14.6,0,0,1,1.34-3.28c3.7-7,14.57-30.57,11-61.83,0,0,2.56,21.4,3.13,39.54A133.83,133.83,0,0,0,494,196.85s-8.72,4.85-9,13.85c0,0-1.14,18.43-29.43,15.58C455.59,226.28,436.7,225,432.72,206.05Z" fill="#231f20" opacity="0.3"/><path d="M400.2,163.2a8.7,8.7,0,0,1,3.29.18,5.58,5.58,0,0,1,2.85,1.71,6.15,6.15,0,0,1,1.31,3.09c.15,1.12,0,2.27.16,3.28a4.7,4.7,0,0,0,.51,1.46,6.32,6.32,0,0,1,.68,1.57,17.22,17.22,0,0,1,.52,3.33,44.57,44.57,0,0,1-.15,6.64v-.05a95,95,0,0,0,1.71,15.07l0-.09a25.6,25.6,0,0,1,1.52,10.13,21.45,21.45,0,0,1-2.85,9.78,24.46,24.46,0,0,1-6.89,7.46,36.74,36.74,0,0,1-9,4.66,39.43,39.43,0,0,0,8.67-5,24,24,0,0,0,6.52-7.45,21.76,21.76,0,0,0,2.61-9.46,24.68,24.68,0,0,0-1.54-9.69l0-.06v0a75.67,75.67,0,0,1-1.12-7.6c-.24-2.55-.42-5.09-.49-7.66v-.05a50.87,50.87,0,0,0,.27-6.52,15.31,15.31,0,0,0-.41-3.19,5.09,5.09,0,0,0-.59-1.46,5.16,5.16,0,0,1-.52-1.67,11.91,11.91,0,0,1,0-1.68c0-.56,0-1.09,0-1.62a5.73,5.73,0,0,0-1.09-2.94,5.26,5.26,0,0,0-2.65-1.74A8.84,8.84,0,0,0,400.2,163.2Z" fill="#231f20" opacity="0.3"/><path d="M376.53,185.25a33.92,33.92,0,0,0,4,1.51c.66.24,1.35.41,2,.62l2,.5a37.73,37.73,0,0,0,8.32.85,28.53,28.53,0,0,0,8.27-1.13,37,37,0,0,0,7.8-3.18l-1.78,1.18a14.19,14.19,0,0,1-1.85,1.08l-1.93.92c-.65.3-1.35.49-2,.74a28.44,28.44,0,0,1-4.18,1.06,34.43,34.43,0,0,1-4.3.33,30.93,30.93,0,0,1-8.51-1.11A29.31,29.31,0,0,1,376.53,185.25Z" fill="#231f20" opacity="0.3"/><path d="M378.82,168.43s4.15-28,2.49-37c0,0-1.66-32.2,2.91-27.21,0,0-2.91,26.79,16.61,27a52,52,0,0,0-1.24,10.38l.61,21.57s4.57,6.13-8.82,5.37C391.38,168.57,387.75,169.47,378.82,168.43Z" fill="#f9b499" stroke="#f7a48b" stroke-miterlimit="10"/><path d="M403.33,156.38c.72.67,1.42,1.36,2.12,2s1.38,1.4,2.08,2.1c1.37,1.39,2.72,2.82,4.05,4.26l-.82.17q.81-2.44,1.67-4.88c.57-1.62,1.16-3.24,1.79-4.84v.2c-.21-1-.45-1.94-.63-2.92s-.4-2-.56-2.95c.35.94.65,1.89,1,2.84s.59,1.9.89,2.86l0,.08,0,.11c-.48,1.66-1,3.29-1.53,4.93s-1.09,3.26-1.66,4.88l-.28.78-.54-.61c-1.3-1.46-2.59-3-3.84-4.46-.62-.76-1.27-1.49-1.87-2.27S403.92,157.17,403.33,156.38Z" fill="#231f20" opacity="0.3"/><path d="M432.72,206.05c3.35,32.7,17.78,76.52,20.45,84.41a2.27,2.27,0,0,1-.45,2.23l-7.7,8.73c-2.57-2.86-3.78-2.43-3.78-2.43l-6.1-3.72a2.36,2.36,0,0,1-1-1.18c-5-12.88-8.55-46.1-8.55-46.1l-7.21-67.21,3.21,6.42s4.5,5.68,6,10.18Z" fill="#FBA1B7"/><path d="M432.72,206.05c3.35,32.7,17.78,76.52,20.45,84.41a2.27,2.27,0,0,1-.45,2.23l-7.7,8.73c-2.57-2.86-3.78-2.43-3.78-2.43l-6.1-3.72a2.36,2.36,0,0,1-1-1.18c-5-12.88-8.55-46.1-8.55-46.1l-7.21-67.21,3.21,6.42s4.5,5.68,6,10.18Z" fill="#fff" opacity="0.6"/><path d="M535,603.29a3.81,3.81,0,0,1-2.51,3.88c-2.14.76-4.49,1.47-7,2.12a232,232,0,0,1-26.08,5c-3.12.43-5.78.75-7.71,1a3.35,3.35,0,0,1-3.71-2.88l-9.41-67.06L456.31,390.56l-8.15,78c-4.94,41.09-8.2,125.39-8.87,143.82a2.61,2.61,0,0,1-3.52,2.34,140.55,140.55,0,0,1-15-4.2c-2.23-.76-4.52-1.59-6.86-2.53A141.05,141.05,0,0,1,394,598.16a5.07,5.07,0,0,1-1-.52,4.82,4.82,0,0,1-2.05-3.93l.21-87.86c-1.28-63.43,4.72-97.72,4.72-97.72,2.28-24.69,10.62-91.12,12.49-105.91l21.37,5.21c10.92,1,11.52-6.46,11.52-8.12,0-.2,0-.32,0-.32a13.82,13.82,0,0,1,4.24,2.79c8.46,8.24,14.94,4.49,14.94,4.49,26.08-7.64,43.66-15.64,52.11-19.9l15.34,215.19Z" fill="#FFDBAA"/><path d="M445.23,329.64l2.62,15.27c.88,5.08,1.69,10.18,2.63,15.25s1.78,10.17,2.74,15.23c.47,2.54,1,5.07,1.49,7.6.26,1.26.5,2.53.77,3.79l.83,3.78c-1.52-4.94-2.72-10-3.84-15s-2-10.14-3-15.22-1.68-10.19-2.39-15.31S445.72,334.79,445.23,329.64Z" fill="#231f20" opacity="0.3"/><path d="M486.43,320.49a35.5,35.5,0,0,0,1.9,3.55c.69,1.15,1.4,2.29,2.19,3.36a59.17,59.17,0,0,0,5.08,6.18c.45.5.94.95,1.4,1.43s.95.94,1.45,1.39l1.48,1.35,1.54,1.29c2,1.72,4.26,3.24,6.47,4.79-1.2-.61-2.4-1.24-3.57-1.92s-2.3-1.43-3.38-2.27a43.92,43.92,0,0,1-6.12-5.37,42.49,42.49,0,0,1-5-6.44A30.18,30.18,0,0,1,486.43,320.49Z" fill="#231f20" opacity="0.3"/><path d="M414.1,314.54a53.76,53.76,0,0,1-3.55,11.1,38.84,38.84,0,0,1-6.06,9.95c1-1.69,1.85-3.4,2.72-5.12s1.66-3.47,2.43-5.24C411.19,321.71,412.62,318.13,414.1,314.54Z" fill="#231f20" opacity="0.3"/><path d="M421.19,621.5a16.28,16.28,0,0,0-10.33,3.23,7.83,7.83,0,0,1-3.69,1.5c-5.5.62-1.78-4.5-1.78-4.5,6.68-6.9-4.45-7.57-4.45-7.57l-13-.21a.32.32,0,0,1-.22-.54l0,0c3.77-3,4.93-11.67,5.27-15.74a5.07,5.07,0,0,0,1,.52A141.05,141.05,0,0,0,413.88,608c2.34.94,4.63,1.77,6.86,2.53Z" fill="#f9b499"/><path d="M424.31,635.53c-2.73,0-10.83,2.69-13.68,3.66a6.24,6.24,0,0,1-2.1.33L346,638.42c-.67-2.67,8.9-5.34,8.9-5.34,22-8,32.23-19,32.85-19.67a.32.32,0,0,0,.22.54l13,.21s11.13.67,4.45,7.57c0,0-3.72,5.12,1.78,4.5a7.83,7.83,0,0,0,3.69-1.5,16.28,16.28,0,0,1,10.33-3.23Z" fill="#FBA1B7"/><path d="M423.13,646a7.41,7.41,0,0,1-4,1.07L350,646.44c-7.57-.45-6.46-3.12-6.46-3.12a4.43,4.43,0,0,1,2.45-4.9l62.58,1.1a6.24,6.24,0,0,0,2.1-.33c2.85-1,10.95-3.66,13.68-3.66C427.65,641.66,425.33,644.65,423.13,646Z" fill="#FFDBAA"/><path d="M528,622.22c-6.79-11.5-20.93-6.41-20.93-6.41-2.58,1-5.06,3.44-7.26,6.4l-.4-8a232,232,0,0,0,26.08-5l2.64,10.08A8.06,8.06,0,0,0,528,622.22Z" fill="#f9b499"/><path d="M536.3,637.87s-30,4-45,.38c0,0,3.55-9.3,8.57-16,2.2-3,4.68-5.42,7.26-6.4,0,0,14.14-5.09,20.93,6.41a8.06,8.06,0,0,1,.13-2.85c.29-.6,1-.28,2.51,2.85C530.65,622.22,535.74,633.53,536.3,637.87Z" fill="#FBA1B7"/><path d="M531.64,647.48H492.81a2.84,2.84,0,0,1-2.23-1.1c-3.12-4,.67-8.13.67-8.13,15.08,3.58,45-.38,45-.38a17,17,0,0,1,.88,2.07A5.77,5.77,0,0,1,531.64,647.48Z" fill="#FFDBAA"/><path d="M447.05,393.82c-1.48,8.65-2.73,17.33-3.83,26s-2.11,17.41-2.89,26.14-1.42,17.47-1.75,26.22a24.75,24.75,0,0,0,.28,6.45,18,18,0,0,0,.89,3.07c.19.48.44,1,.61,1.57a6.8,6.8,0,0,1,.28,1.74,6.09,6.09,0,0,1-.91,3.39,9.48,9.48,0,0,1-2.35,2.53,2.25,2.25,0,0,0-1,2.39,9.64,9.64,0,0,0,.5,1.49,7.3,7.3,0,0,1,.35,1.72,9.2,9.2,0,0,1,0,1.74l-.2,1.64-.38,3.26-.67,6.53q-.64,6.54-1.1,13.1c-.64,8.74-1,17.5-1.23,26.26,0,2.19-.09,4.38-.1,6.57s0,4.38,0,6.57c0,4.38.26,8.77.05,13.15l-.72,26.31.23-26.3c0-2.19.11-4.39,0-6.58s-.16-4.38-.18-6.57-.07-4.39-.07-6.58,0-4.39,0-6.59c.09-8.77.5-17.55,1.09-26.3.3-4.38.64-8.76,1.06-13.13l.65-6.55.37-3.27a15.09,15.09,0,0,0,.2-3.17,6.23,6.23,0,0,0-.29-1.5,9.46,9.46,0,0,1-.53-1.63,3.37,3.37,0,0,1,.17-1.88,3,3,0,0,1,.49-.83,3.1,3.1,0,0,1,.36-.37l.33-.25a8.73,8.73,0,0,0,2.12-2.26,5.11,5.11,0,0,0,.79-2.86,5.94,5.94,0,0,0-.24-1.5,15.1,15.1,0,0,0-.58-1.49,18.39,18.39,0,0,1-.92-3.24,25.3,25.3,0,0,1-.27-6.66q.54-13.16,1.89-26.26t3.17-26.13C444,411.1,445.41,402.44,447.05,393.82Z" fill="#231f20" opacity="0.3"/><path d="M512.54,286.37l2.23,32.4s-73.3-.85-106.73-13.92l.33-2.63,21.37,5.21s10.59,2,11.51-8.44a7.88,7.88,0,0,1,3.77,2.43s6.39,7.7,15.41,4.85C460.43,306.27,500.34,293.61,512.54,286.37Z" fill="#231f20" opacity="0.3"/><path d="M508.16,297.42c.64,7.37,1.16,14.74,1.67,22.12l1.4,22.14,1.17,22.15.51,11.07L513.3,386l-.88-11.06-.78-11.06-1.41-22.14-1.16-22.15C508.72,312.2,508.38,304.81,508.16,297.42Z" fill="#231f20" opacity="0.3"/><polygon points="515.59 411.7 517.4 435.33 519.12 458.96 522.38 506.24 525.4 553.54 526.84 577.19 528.16 600.85 526.35 577.22 524.63 553.59 521.38 506.31 518.35 459.02 516.92 435.36 515.59 411.7" fill="#231f20" opacity="0.3"/><ellipse cx="432.59" cy="100.28" rx="4.71" ry="7.43" fill="#f9b499"/><path d="M410.33,139.07s-3.81-8.43-.54-15c0,0,5.44-10.61,4.08-20.41,0,0-.27-6.8,5.45-6.8,0,0,0-5.17,4.35-4.36,0,0,3-4.35,5.44,4.9,0,0,3.27,19-.81,29.67,0,0-2.18,5.17,0,8.44L436.19,150l-19.05,16.88Z" fill="#f9b499" stroke="#f7a48b" stroke-miterlimit="10"/><path d="M427.13,197.71a38.69,38.69,0,0,0-6-10.06l-.06-.09c-3-6-3.77-7.91-3.8-8-5-7.7-.59-13-.54-13.06l19.2-17,.14,0c.29-.05,2.85-.35,4.8,6.2.19.2.66.69,1.32,1.48a56.91,56.91,0,0,0,10.62,10c6.17,4.39,14.48,11.75,19.09,21.9l-.91.41c-4.52-9.94-12.69-17.18-18.76-21.49a58.92,58.92,0,0,1-10.81-10.14c-.82-1-1.34-1.51-1.34-1.51l-.09-.09,0-.13c-1.47-5-3.15-5.55-3.6-5.61l-18.91,16.75c-.12.14-3.93,4.77.71,11.9.05.11.83,2,3.78,7.95a38.47,38.47,0,0,1,6.11,10.32Z" fill="#FBA1B7"/><g opacity="0.3"><path d="M427.13,197.71a38.69,38.69,0,0,0-6-10.06l-.06-.09c-3-6-3.77-7.91-3.8-8-5-7.7-.59-13-.54-13.06l19.2-17,.14,0c.29-.05,2.85-.35,4.8,6.2.19.2.66.69,1.32,1.48a56.91,56.91,0,0,0,10.62,10c6.17,4.39,14.48,11.75,19.09,21.9l-.91.41c-4.52-9.94-12.69-17.18-18.76-21.49a58.92,58.92,0,0,1-10.81-10.14c-.82-1-1.34-1.51-1.34-1.51l-.09-.09,0-.13c-1.47-5-3.15-5.55-3.6-5.61l-18.91,16.75c-.12.14-3.93,4.77.71,11.9.05.11.83,2,3.78,7.95a38.47,38.47,0,0,1,6.11,10.32Z" fill="#231f20"/></g><g id="eee1cb94-cbc9-4978-8a7e-a4394f0959c6" data-name="freesvgillustration--speech-bubble--inject-143"><path d="M534.14,100.13l-.52-.83a42.33,42.33,0,0,0,6.16-5l.7.72A43.91,43.91,0,0,1,534.14,100.13Z" fill="#FBA1B7"/><path d="M545.7,88.86l-.82-.58a42.43,42.43,0,0,0,5.22-38.47l.94-.34A43.44,43.44,0,0,1,545.7,88.86Z" fill="#FBA1B7"/><path d="M510.05,24a40,40,0,0,0-37.43,54.13L461,104l27.46-6.33A40,40,0,1,0,510,24.05Z" fill="#FBA1B7"/><circle cx="510.06" cy="63.99" r="34.51" transform="translate(20.47 220.7) rotate(-24.9)" fill="#fff"/><path d="M511,82a5.38,5.38,0,1,1-3.88-6.55A5.37,5.37,0,0,1,511,82Z" fill="#FFDBAA"/><path d="M508.15,71.43h0a4,4,0,0,1-2.95-4.77l4.71-21.73a4,4,0,0,1,4.71-3.11l.23,0,1.59.41a4,4,0,0,1,2.94,4.83l-.06.23L513,68.66A4,4,0,0,1,508.15,71.43Z" fill="#FFDBAA"/></g></svg>